<svg width="512" height="512" viewBox="0 0 512 512" fill="none" xmlns="http://www.w3.org/2000/svg">
<path fill-rule="evenodd" clip-rule="evenodd" d="M279.461 28.7273C282.139 58.0333 306.719 79.9357 334.444 77.8036C330.567 88.8319 328.938 100.987 330.089 113.592C334.153 158.062 371.299 191.277 413.059 187.779C419.24 187.261 425.176 185.968 430.79 183.996C438.296 217.188 466.746 240.771 498.273 238.13C503.044 237.73 507.636 236.751 512 235.259V342.016C512 481.998 481.998 512 342.016 512H169.984C30.0022 512 0 481.998 0 342.016V169.984C0 30.0022 30.0022 0 169.984 0H284.47C280.413 8.55797 278.519 18.4168 279.461 28.7273Z" fill="#222124"/>
</svg>
