<svg width="1024" height="1024" viewBox="0 0 1024 1024" fill="none" xmlns="http://www.w3.org/2000/svg">
<path fill-rule="evenodd" clip-rule="evenodd" d="M558.922 57.4546C564.278 116.067 613.437 159.871 668.889 155.607C661.134 177.664 657.875 201.974 660.179 227.182C668.306 316.123 742.599 382.553 826.117 375.557C838.48 374.521 850.351 371.935 861.58 367.991C876.592 434.376 933.491 481.542 996.546 476.26C1006.09 475.461 1015.27 473.502 1024 470.518V684.032C1024 963.996 963.996 1024 684.032 1024H339.968C60.0044 1024 0 963.996 0 684.032V339.968C0 60.0044 60.0044 0 339.968 0H568.94C560.826 17.1159 557.038 36.8335 558.922 57.4546Z" fill="white"/>
</svg>
